<svg width="25" height="24" viewBox="0 0 25 24" fill="none" xmlns="http://www.w3.org/2000/svg">
<g clip-path="url(#clip0_122_13988)">
<path d="M5.10757 17.5285L2.23597 20.4001L3.93337 22.0969L7.11637 18.9139C8.65357 19.7953 10.4062 20.4001 12.3334 20.4001C19.5334 20.4001 24.3334 12.0001 24.3334 12.0001C24.3334 12.0001 22.5616 8.90472 19.5592 6.47172L22.4308 3.60012L20.7334 1.90332L17.5504 5.08632C16.0132 4.20492 14.2606 3.60012 12.3334 3.60012C5.13337 3.60012 0.333374 12.0001 0.333374 12.0001C0.333374 12.0001 2.10517 15.0955 5.10757 17.5285ZM7.53337 12.0001C7.53337 9.34932 9.68257 7.20012 12.3334 7.20012C13.2232 7.20012 14.0536 7.44672 14.7682 7.86852L12.9472 9.68952C12.7498 9.63732 12.547 9.60012 12.3334 9.60012C11.0098 9.60012 9.93337 10.6765 9.93337 12.0001C9.93337 12.2137 9.97057 12.4165 10.0228 12.6139L8.20177 14.4349C7.77997 13.7203 7.53337 12.8899 7.53337 12.0001ZM17.1334 12.0001C17.1334 14.6509 14.9842 16.8001 12.3334 16.8001C11.4436 16.8001 10.6132 16.5535 9.89857 16.1317L11.7196 14.3107C11.917 14.3629 12.1198 14.4001 12.3334 14.4001C13.657 14.4001 14.7334 13.3237 14.7334 12.0001C14.7334 11.7865 14.6962 11.5837 14.644 11.3863L16.465 9.56532C16.8868 10.2799 17.1334 11.1103 17.1334 12.0001Z" fill="#919EAB"/>
</g>
<defs>
<clipPath id="clip0_122_13988">
<rect width="24" height="24" fill="white" transform="translate(0.333374)"/>
</clipPath>
</defs>
</svg>
