<svg width="25" height="24" viewBox="0 0 25 24" fill="none" xmlns="http://www.w3.org/2000/svg">
<path d="M16.8567 2H8.47669C4.83669 2 2.66669 4.17 2.66669 7.81V16.18C2.66669 19.83 4.83669 22 8.47669 22H16.8467C20.4867 22 22.6567 19.83 22.6567 16.19V7.81C22.6667 4.17 20.4967 2 16.8567 2ZM11.6167 17.51C11.3267 17.8 10.7767 18.08 10.3767 18.14L7.91669 18.49C7.82669 18.5 7.73669 18.51 7.64669 18.51C7.23669 18.51 6.85669 18.37 6.58669 18.1C6.25669 17.77 6.11669 17.29 6.19669 16.76L6.54669 14.3C6.60669 13.89 6.87669 13.35 7.17669 13.06L11.6367 8.6C11.7167 8.81 11.7967 9.02 11.9067 9.26C12.0067 9.47 12.1167 9.69 12.2367 9.89C12.3367 10.06 12.4467 10.22 12.5367 10.34C12.6467 10.51 12.7767 10.67 12.8567 10.76C12.9067 10.83 12.9467 10.88 12.9667 10.9C13.2167 11.2 13.5067 11.48 13.7567 11.69C13.8267 11.76 13.8667 11.8 13.8867 11.81C14.0367 11.93 14.1867 12.05 14.3167 12.14C14.4767 12.26 14.6367 12.37 14.8067 12.46C15.0067 12.58 15.2267 12.69 15.4467 12.8C15.6767 12.9 15.8867 12.99 16.0967 13.06L11.6167 17.51ZM18.0367 11.09L17.1167 12.02C17.0567 12.08 16.9767 12.11 16.8967 12.11C16.8667 12.11 16.8267 12.11 16.8067 12.1C14.7767 11.52 13.1567 9.9 12.5767 7.87C12.5467 7.76 12.5767 7.64 12.6567 7.57L13.5867 6.64C15.1067 5.12 16.5567 5.15 18.0467 6.64C18.8067 7.4 19.1767 8.13 19.1767 8.89C19.1667 9.61 18.7967 10.33 18.0367 11.09Z" fill="#1890FF"/>
</svg>
