<svg width="22" height="22" viewBox="0 0 22 22" fill="none" xmlns="http://www.w3.org/2000/svg">
<path opacity="0.48" fillRule="evenodd" clipRule="evenodd" d="M13.352 3.34791C13.352 2.51433 14.0336 1.83325 14.8672 1.83325C15.7008 1.83325 16.3848 2.51433 16.3848 3.34791C16.3848 4.1815 15.7008 4.86316 14.8672 4.86316C14.0336 4.86316 13.352 4.1815 13.352 3.34791ZM7.41826 5.47186C7.81509 4.0736 9.10071 3.04474 10.624 3.04474C12.1473 3.04474 13.433 4.0736 13.8298 5.47186H7.41826Z" fill="#614AD3"/>
<path fillRule="evenodd" clipRule="evenodd" d="M2.74225 4.25928C2.46429 4.25928 2.21854 4.37379 2.06189 4.55001C1.90525 4.72624 1.83333 4.94861 1.83333 5.1676C1.83333 5.38659 1.90525 5.60896 2.06189 5.78519C2.21854 5.9614 2.46429 6.07651 2.74225 6.07651H4.41855L6.09427 15.0437C6.17431 15.4716 6.55382 15.7779 6.98542 15.7779H16.6868C17.1029 15.7779 17.4758 15.4938 17.5708 15.0822L19.3905 7.19977C19.5205 6.63657 19.0892 6.07829 18.5064 6.07829H6.27605L6.05874 4.99114C5.97449 4.56842 5.59922 4.26043 5.16818 4.25928H2.74225ZM8.80443 16.3842C7.97085 16.3842 7.28977 17.0659 7.28977 17.8995C7.28977 18.7331 7.97084 19.4165 8.80443 19.4165C9.63802 19.4165 10.3197 18.7331 10.3197 17.8995C10.3197 17.0659 9.63801 16.3842 8.80443 16.3842ZM13.352 17.8995C13.352 17.0659 14.0336 16.3842 14.8672 16.3842C15.7008 16.3842 16.3848 17.0659 16.3848 17.8995C16.3848 18.7331 15.7008 19.4165 14.8672 19.4165C14.0336 19.4165 13.352 18.7331 13.352 17.8995Z" fill="#614AD3"/>
</svg>
