<svg width="22" height="22" viewBox="0 0 22 22" fill="none" xmlns="http://www.w3.org/2000/svg">
<path d="M18.6817 7.85577L17.5542 9.55161C18.6587 11.7545 18.5829 14.3648 17.3525 16.4999H4.6475C3.03095 13.6956 3.44427 10.163 5.66452 7.80758C7.88477 5.45213 11.3867 4.83096 14.2817 6.27911L15.9775 5.15161C12.4243 2.87317 7.77461 3.31557 4.71487 6.2232C1.65512 9.13083 0.976392 13.752 3.07083 17.4166C3.39634 17.9804 3.99646 18.3293 4.6475 18.3333H17.3433C18.0009 18.3359 18.6095 17.9861 18.9383 17.4166C20.6604 14.4335 20.5648 10.7367 18.6908 7.84661L18.6817 7.85577Z" fill="#637381"/>
<path opacity="0.48" d="M9.7075 14.1259C10.0514 14.4701 10.518 14.6636 11.0046 14.6636C11.4912 14.6636 11.9578 14.4701 12.3017 14.1259L17.49 6.34338L9.7075 11.5317C9.36324 11.8756 9.16981 12.3422 9.16981 12.8288C9.16981 13.3154 9.36324 13.782 9.7075 14.1259Z" fill="#637381"/>
</svg>
