<svg width="22" height="22" viewBox="0 0 22 22" fill="none" xmlns="http://www.w3.org/2000/svg">
<path d="M7.57737 5.6308V8.14673C7.57737 8.4583 7.82958 8.7105 8.14115 8.7105C8.42406 8.7105 8.65852 8.50207 8.69881 8.23008L8.70493 8.14673V5.6308H13.8916V8.14673C13.8916 8.4583 14.1441 8.7105 14.4553 8.7105C14.7386 8.7105 14.9728 8.50207 15.013 8.23008L15.0191 8.14673V5.6308H16.7172C17.3732 5.6308 17.9332 6.11111 18.0446 6.74622L18.0608 6.87521L18.9204 17.7074C18.9873 18.5767 18.6862 19.4404 18.0951 20.0786C17.5493 20.6677 16.7932 21.0253 15.9957 21.0768L15.7956 21.0833H6.80091C5.93082 21.0833 5.0927 20.7168 4.50147 20.0786C3.95576 19.4896 3.65727 18.7083 3.66689 17.909L3.67575 17.7089L4.53569 6.87371C4.5857 6.22081 5.1078 5.6997 5.74949 5.63711L5.87931 5.6308H7.57737ZM11.334 9.27079C11.1262 9.26779 10.9549 9.43367 10.9519 9.64206V10.3347C9.58485 10.4319 8.65528 11.2764 8.65528 12.4004C8.65528 13.7796 9.82788 14.1623 10.9519 14.4661V16.8964C10.3589 16.8168 9.79993 16.5707 9.34182 16.1855C9.25555 16.1169 9.1486 16.0786 9.03803 16.0762C8.75794 16.0956 8.54226 16.3301 8.54585 16.6108C8.54529 16.7336 8.59329 16.8514 8.67955 16.9389C9.30717 17.504 10.114 17.829 10.9579 17.8563L10.9585 18.5374C10.9682 18.7452 11.145 18.9056 11.3528 18.8953C11.5576 18.8953 11.7234 18.7294 11.7234 18.5247V17.8442C13.3821 17.7348 14.0504 16.7263 14.0504 15.657C14.0504 14.2231 12.8475 13.7856 11.7235 13.4819V11.3432C12.181 11.4204 12.6124 11.6081 12.9812 11.89C13.0547 11.9405 13.1409 11.9678 13.2303 11.969C13.5164 11.969 13.7497 11.7388 13.7528 11.4526C13.7534 11.3299 13.7054 11.212 13.6191 11.1245C13.0863 10.6682 12.4179 10.3991 11.7174 10.359V9.64206C11.7174 9.4373 11.5516 9.27144 11.3468 9.27144C11.3425 9.27079 11.3383 9.27079 11.334 9.27079ZM11.7235 14.697C12.41 14.8914 12.9447 15.1527 12.9386 15.7906C12.9386 16.2524 12.6227 16.7992 11.7235 16.9085V14.697ZM10.958 11.3007V13.2874C10.2957 13.093 9.77929 12.8925 9.77929 12.3275C9.77929 11.7625 10.2471 11.3554 10.958 11.3007ZM11.2983 1.83325C13.35 1.83325 15.0192 3.50274 15.0192 5.55448V5.63077H13.8916V5.55448C13.8916 4.12438 12.7284 2.96077 11.2983 2.96077C9.8682 2.96077 8.70497 4.12438 8.70497 5.55448V5.63077H7.57741V5.55448C7.57741 3.50274 9.24652 1.83325 11.2983 1.83325Z" fill="#637381"/>
</svg>
