<svg width="22" height="22" viewBox="0 0 22 22" fill="none" xmlns="http://www.w3.org/2000/svg">
<path opacity="0.48" d="M16.236 6.52221C16.9318 6.52926 17.8992 6.53229 18.7199 6.52926C19.1402 6.52826 19.3538 6.02106 19.0623 5.71554C18.008 4.60839 16.1222 2.62701 15.0429 1.49365C14.7444 1.18006 14.2223 1.39584 14.2223 1.83043V4.4884C14.2223 5.60361 15.1318 6.52221 16.236 6.52221Z" fill="#637381"/>
<path fillRule="evenodd" clipRule="evenodd" d="M13.3774 15.4267H7.94639C7.53706 15.4267 7.19763 15.0839 7.19763 14.6705C7.19763 14.2571 7.53706 13.9243 7.94639 13.9243H13.3774C13.7867 13.9243 14.1262 14.2571 14.1262 14.6705C14.1262 15.0839 13.7867 15.4267 13.3774 15.4267ZM7.94639 8.88264H11.3208C11.7301 8.88264 12.0696 9.22547 12.0696 9.63889C12.0696 10.0523 11.7301 10.3851 11.3208 10.3851H7.94639C7.53706 10.3851 7.19763 10.0523 7.19763 9.63889C7.19763 9.22547 7.53706 8.88264 7.94639 8.88264ZM19.1671 7.99525C18.7378 7.99525 18.2286 8.00533 17.9191 8.00533C17.4599 8.00533 16.8609 7.99525 16.1021 7.99525C14.2751 7.98517 12.7676 6.47267 12.7676 4.62742V1.38058C12.7676 1.1285 12.568 0.916748 12.3084 0.916748H6.9772C4.49131 0.916748 2.47464 2.96367 2.47464 5.46433V16.3342C2.47464 18.9558 4.59115 21.0834 7.18686 21.0834H15.1337C17.6096 21.0834 19.6163 19.0567 19.6163 16.556V8.449C19.6163 8.19692 19.4166 7.99525 19.1671 7.99525Z" fill="#637381"/>
</svg>
