<svg width="22" height="22" viewBox="0 0 22 22" fill="none" xmlns="http://www.w3.org/2000/svg">
<path fillRule="evenodd" clipRule="evenodd" d="M8.24967 10.0833C10.2747 10.0833 11.9163 8.44171 11.9163 6.41667C11.9163 4.39162 10.2747 2.75 8.24967 2.75C6.22463 2.75 4.58301 4.39162 4.58301 6.41667C4.58301 8.44171 6.22463 10.0833 8.24967 10.0833ZM15.583 11.917C17.1018 11.917 18.333 10.6858 18.333 9.16699C18.333 7.64821 17.1018 6.41699 15.583 6.41699C14.0642 6.41699 12.833 7.64821 12.833 9.16699C12.833 10.6858 14.0642 11.917 15.583 11.917ZM20.1663 17.4163C20.1663 17.9226 19.7559 18.333 19.2497 18.333H14.6663C14.6663 18.8392 14.2559 19.2496 13.7497 19.2496H2.74967C2.24341 19.2496 1.83301 18.8392 1.83301 18.333C1.83651 15.7416 3.39844 13.4066 5.7923 12.4142C8.18616 11.4218 10.942 11.9667 12.778 13.7955C14.1603 12.7258 16.0305 12.5354 17.6 13.3046C19.1694 14.0737 20.1648 15.6685 20.1663 17.4163Z" fill="#637381"/>
</svg>
