<svg width="24" height="24" viewBox="0 0 24 24" fill="none" xmlns="http://www.w3.org/2000/svg">
<g clip-path="url(#clip0_122_14093)">
<path d="M11.9998 3.64551C2.88935 3.64551 0.151337 11.5433 0.126273 11.6232L-0.000244141 12.0004L0.125079 12.3776C0.151337 12.4575 2.88935 20.3553 11.9998 20.3553C21.1102 20.3553 23.8482 12.4575 23.8732 12.3776L23.9998 12.0004L23.8744 11.6232C23.8482 11.5433 21.1102 3.64551 11.9998 3.64551ZM11.9998 16.7746C9.36677 16.7746 7.22554 14.6334 7.22554 12.0004C7.22554 9.36741 9.36677 7.22617 11.9998 7.22617C14.6327 7.22617 16.774 9.36741 16.774 12.0004C16.774 14.6334 14.6327 16.7746 11.9998 16.7746Z" fill="#919EAB"/>
<path d="M11.9999 10C10.9159 10 9.99988 10.916 9.99988 12C9.99988 13.084 10.9159 14 11.9999 14C13.0839 14 13.9999 13.084 13.9999 12C13.9999 10.916 13.0839 10 11.9999 10Z" fill="#919EAB"/>
</g>
<defs>
<clipPath id="clip0_122_14093">
<rect width="24" height="24" fill="white"/>
</clipPath>
</defs>
</svg>
